<?xml version="1.0" encoding="iso-8859-1"?>
<!-- Generator: Adobe Illustrator 19.0.0, SVG Export Plug-In . SVG Version: 6.00 Build 0)  -->
<svg version="1.1" id="Capa_1" xmlns="http://www.w3.org/2000/svg" xmlns:xlink="http://www.w3.org/1999/xlink" x="0px" y="0px"
	 viewBox="0 0 204.8 204.8" style="enable-background:new 0 0 204.8 204.8;" xml:space="preserve">
<path style="fill:#EE5281;" d="M201.387,102.4c0-54.67-44.317-98.987-98.987-98.987S3.413,47.73,3.413,102.4H201.387z"/>
<path d="M204.8,105.813H0V102.4C0,45.937,45.937,0,102.4,0s102.4,45.937,102.4,102.4V105.813z M6.886,98.987h191.027
	c-1.802-51.127-43.955-92.16-95.514-92.16S8.689,47.86,6.886,98.987z"/>
<path style="fill:#FFFFFF;" d="M201.387,102.4c0,54.67-44.317,98.987-98.987,98.987S3.413,157.07,3.413,102.4H201.387z"/>
<path d="M102.4,204.8C45.937,204.8,0,158.863,0,102.4c0-1.884,1.529-3.413,3.413-3.413h197.973c1.884,0,3.413,1.529,3.413,3.413
	C204.8,158.863,158.863,204.8,102.4,204.8z M6.886,105.813c1.802,51.127,43.955,92.16,95.514,92.16s93.711-41.033,95.514-92.16
	H6.886z"/>
<circle style="fill:#777777;" cx="102.4" cy="102.4" r="37.547"/>
<path d="M102.4,143.36c-22.586,0-40.96-18.374-40.96-40.96s18.374-40.96,40.96-40.96s40.96,18.374,40.96,40.96
	S124.986,143.36,102.4,143.36z M102.4,68.267c-18.821,0-34.133,15.312-34.133,34.133s15.312,34.133,34.133,34.133
	s34.133-15.312,34.133-34.133S121.221,68.267,102.4,68.267z"/>
<circle style="fill:#FFFFFF;" cx="102.4" cy="102.4" r="23.893"/>
<path d="M102.4,129.707c-15.056,0-27.307-12.25-27.307-27.307s12.25-27.307,27.307-27.307s27.307,12.25,27.307,27.307
	S117.456,129.707,102.4,129.707z M102.4,81.92c-11.293,0-20.48,9.187-20.48,20.48s9.187,20.48,20.48,20.48s20.48-9.187,20.48-20.48
	S113.693,81.92,102.4,81.92z"/>
<g>
</g>
<g>
</g>
<g>
</g>
<g>
</g>
<g>
</g>
<g>
</g>
<g>
</g>
<g>
</g>
<g>
</g>
<g>
</g>
<g>
</g>
<g>
</g>
<g>
</g>
<g>
</g>
<g>
</g>
</svg>
