<?xml version="1.0" encoding="iso-8859-1"?>
<!-- Generator: Adobe Illustrator 19.0.0, SVG Export Plug-In . SVG Version: 6.00 Build 0)  -->
<svg version="1.1" id="Capa_1" xmlns="http://www.w3.org/2000/svg" xmlns:xlink="http://www.w3.org/1999/xlink" x="0px" y="0px"
	 viewBox="0 0 204.8 204.8" style="enable-background:new 0 0 204.8 204.8;" xml:space="preserve">
<g>
	<g>
		<path d="M102.4,0C45.937,0,0,45.937,0,102.4v3.413h62.432v-6.827H6.886C8.689,47.86,50.842,6.827,102.4,6.827
			s93.711,41.033,95.514,92.16h-55.912v6.827H204.8V102.4C204.8,45.937,158.863,0,102.4,0z"/>
	</g>
</g>
<g>
	<g>
		<path d="M201.387,98.987h-59.385c-1.884,0-3.413,1.529-3.413,3.413s1.529,3.413,3.413,3.413h55.912
			c-1.802,51.127-43.955,92.16-95.514,92.16S8.689,156.94,6.886,105.813h56.938c1.884,0,3.413-1.529,3.413-3.413
			s-1.529-3.413-3.413-3.413H3.413C1.529,98.987,0,100.516,0,102.4c0,56.463,45.937,102.4,102.4,102.4s102.4-45.937,102.4-102.4
			C204.8,100.516,203.271,98.987,201.387,98.987z"/>
	</g>
</g>
<g>
	<g>
		<path d="M102.4,61.44c-22.586,0-40.96,18.374-40.96,40.96s18.374,40.96,40.96,40.96s40.96-18.374,40.96-40.96
			S124.986,61.44,102.4,61.44z M102.4,136.533c-18.821,0-34.133-15.312-34.133-34.133S83.579,68.267,102.4,68.267
			s34.133,15.312,34.133,34.133S121.221,136.533,102.4,136.533z"/>
	</g>
</g>
<g>
	<g>
		<path d="M102.4,75.093c-15.056,0-27.307,12.25-27.307,27.307s12.25,27.307,27.307,27.307s27.307-12.25,27.307-27.307
			S117.456,75.093,102.4,75.093z M102.4,122.88c-11.293,0-20.48-9.187-20.48-20.48s9.187-20.48,20.48-20.48s20.48,9.187,20.48,20.48
			S113.693,122.88,102.4,122.88z"/>
	</g>
</g>
<g>
</g>
<g>
</g>
<g>
</g>
<g>
</g>
<g>
</g>
<g>
</g>
<g>
</g>
<g>
</g>
<g>
</g>
<g>
</g>
<g>
</g>
<g>
</g>
<g>
</g>
<g>
</g>
<g>
</g>
</svg>
